<mxfile modified="2022-03-17T17:43:07.612Z" host="app.diagrams.net" agent="5.0 (X11; Linux x86_64) AppleWebKit/537.36 (KHTML, like Gecko) Chrome/99.0.4844.51 Safari/537.36" etag="J2bmU1LZl1j-u_vOWdNx" version="17.1.0" type="github" pages="2">
  <diagram id="f106602c-feb2-e66a-4537-3a34d633f6aa" name="Page-1">
    <mxGraphModel dx="2515" dy="3257" grid="1" gridSize="10" guides="1" tooltips="1" connect="1" arrows="1" fold="1" page="1" pageScale="1" pageWidth="1169" pageHeight="827" background="none" math="0" shadow="0">
      <root>
        <mxCell id="0" />
        <mxCell id="1" parent="0" />
        <mxCell id="14" value="&lt;b&gt;Google &lt;/b&gt;Cloud Platform" style="fillColor=#F6F6F6;strokeColor=none;shadow=0;gradientColor=none;fontSize=14;align=left;spacing=10;fontColor=#717171;9E9E9E;verticalAlign=top;spacingTop=-4;fontStyle=0;spacingLeft=40;html=1;" parent="1" vertex="1">
          <mxGeometry x="280" y="90" width="840" height="480" as="geometry" />
        </mxCell>
        <mxCell id="15" value="" style="shape=mxgraph.gcp2.google_cloud_platform;fillColor=#F6F6F6;strokeColor=none;shadow=0;gradientColor=none;" parent="14" vertex="1">
          <mxGeometry width="23" height="20" relative="1" as="geometry">
            <mxPoint x="20" y="10" as="offset" />
          </mxGeometry>
        </mxCell>
        <mxCell id="O8UG0uur4NidOeMpr3gH-1022" value="" style="strokeColor=#dddddd;shadow=1;strokeWidth=1;rounded=1;absoluteArcSize=1;arcSize=2;" parent="14" vertex="1">
          <mxGeometry x="353.2044444444444" y="399.99782608695654" width="197.03703703703704" height="62.608695652173914" as="geometry" />
        </mxCell>
        <mxCell id="O8UG0uur4NidOeMpr3gH-1023" value="Cloud&#xa;Storage" style="sketch=0;dashed=0;connectable=0;html=1;fillColor=#5184F3;strokeColor=none;shape=mxgraph.gcp2.hexIcon;prIcon=cloud_storage;part=1;labelPosition=right;verticalLabelPosition=middle;align=left;verticalAlign=middle;spacingLeft=5;fontColor=#999999;fontSize=12;" parent="O8UG0uur4NidOeMpr3gH-1022" vertex="1">
          <mxGeometry y="0.5" width="44" height="39" relative="1" as="geometry">
            <mxPoint x="5" y="-19.5" as="offset" />
          </mxGeometry>
        </mxCell>
        <mxCell id="O8UG0uur4NidOeMpr3gH-1026" value="" style="strokeColor=#dddddd;shadow=1;strokeWidth=1;rounded=1;absoluteArcSize=1;arcSize=2;" parent="14" vertex="1">
          <mxGeometry x="49.411764705882355" y="263.7654229934924" width="197.64705882352942" height="62.47288503253797" as="geometry" />
        </mxCell>
        <mxCell id="O8UG0uur4NidOeMpr3gH-1027" value="Cloud Data Fusion" style="sketch=0;dashed=0;connectable=0;html=1;fillColor=#5184F3;strokeColor=none;shape=mxgraph.gcp2.hexIcon;prIcon=cloud_data_fusion;part=1;labelPosition=right;verticalLabelPosition=middle;align=left;verticalAlign=middle;spacingLeft=5;fontColor=#999999;fontSize=12;" parent="O8UG0uur4NidOeMpr3gH-1026" vertex="1">
          <mxGeometry y="0.5" width="44" height="39" relative="1" as="geometry">
            <mxPoint x="5" y="-19.5" as="offset" />
          </mxGeometry>
        </mxCell>
        <mxCell id="O8UG0uur4NidOeMpr3gH-1018" value="" style="strokeColor=#dddddd;shadow=1;strokeWidth=1;rounded=1;absoluteArcSize=1;arcSize=2;" parent="14" vertex="1">
          <mxGeometry x="352.59503267973855" y="263.7654229934924" width="197.64705882352942" height="62.47288503253797" as="geometry" />
        </mxCell>
        <mxCell id="O8UG0uur4NidOeMpr3gH-1019" value="&lt;font color=&quot;#000000&quot;&gt;&lt;span&gt;Data Warehouse&lt;/span&gt;&lt;/font&gt;&lt;br&gt;BigQuery" style="sketch=0;dashed=0;connectable=0;html=1;fillColor=#5184F3;strokeColor=none;shape=mxgraph.gcp2.hexIcon;prIcon=bigquery;part=1;labelPosition=right;verticalLabelPosition=middle;align=left;verticalAlign=middle;spacingLeft=5;fontColor=#999999;fontSize=12;" parent="O8UG0uur4NidOeMpr3gH-1018" vertex="1">
          <mxGeometry y="0.5" width="44" height="39" relative="1" as="geometry">
            <mxPoint x="5" y="-19.5" as="offset" />
          </mxGeometry>
        </mxCell>
        <mxCell id="O8UG0uur4NidOeMpr3gH-1032" value="" style="edgeStyle=orthogonalEdgeStyle;fontSize=12;html=1;endArrow=blockThin;endFill=1;rounded=0;strokeWidth=2;endSize=4;startSize=4;dashed=0;strokeColor=#4284F3;exitX=0.5;exitY=1;exitDx=0;exitDy=0;entryX=0;entryY=0.5;entryDx=0;entryDy=0;" parent="14" source="O8UG0uur4NidOeMpr3gH-1026" target="O8UG0uur4NidOeMpr3gH-1022" edge="1">
          <mxGeometry width="100" relative="1" as="geometry">
            <mxPoint x="280" y="260.8695652173913" as="sourcePoint" />
            <mxPoint x="383.7037037037037" y="260.8695652173913" as="targetPoint" />
          </mxGeometry>
        </mxCell>
        <mxCell id="O8UG0uur4NidOeMpr3gH-1038" value="" style="edgeStyle=orthogonalEdgeStyle;fontSize=12;html=1;endArrow=blockThin;endFill=1;rounded=0;strokeWidth=2;endSize=4;startSize=4;dashed=0;strokeColor=#4284F3;exitX=1;exitY=0.5;exitDx=0;exitDy=0;entryX=0;entryY=0.5;entryDx=0;entryDy=0;" parent="14" source="O8UG0uur4NidOeMpr3gH-1026" target="O8UG0uur4NidOeMpr3gH-1018" edge="1">
          <mxGeometry width="100" relative="1" as="geometry">
            <mxPoint x="300.7407407407407" y="210" as="sourcePoint" />
            <mxPoint x="404.4444444444444" y="210" as="targetPoint" />
          </mxGeometry>
        </mxCell>
        <mxCell id="O8UG0uur4NidOeMpr3gH-1040" value="" style="edgeStyle=orthogonalEdgeStyle;fontSize=12;html=1;endArrow=blockThin;endFill=1;rounded=0;strokeWidth=2;endSize=4;startSize=4;dashed=0;strokeColor=#4284F3;exitX=0.5;exitY=0;exitDx=0;exitDy=0;startArrow=blockThin;startFill=1;entryX=0.5;entryY=1;entryDx=0;entryDy=0;" parent="14" source="O8UG0uur4NidOeMpr3gH-1018" edge="1">
          <mxGeometry width="100" relative="1" as="geometry">
            <mxPoint x="270.28021786492377" y="109.99794397811934" as="sourcePoint" />
            <mxPoint x="451.7249999999999" y="170" as="targetPoint" />
            <Array as="points" />
          </mxGeometry>
        </mxCell>
        <mxCell id="O8UG0uur4NidOeMpr3gH-1042" value="" style="edgeStyle=orthogonalEdgeStyle;fontSize=12;html=1;endArrow=blockThin;endFill=1;rounded=0;strokeWidth=2;endSize=4;startSize=4;dashed=0;strokeColor=#4284F3;entryX=0.5;entryY=1;entryDx=0;entryDy=0;exitX=0.5;exitY=0;exitDx=0;exitDy=0;startArrow=blockThin;startFill=1;" parent="14" source="O8UG0uur4NidOeMpr3gH-1022" target="O8UG0uur4NidOeMpr3gH-1018" edge="1">
          <mxGeometry width="100" relative="1" as="geometry">
            <mxPoint x="511.2006971677558" y="270.9954229934924" as="sourcePoint" />
            <mxPoint x="584.9980827886709" y="186.63814769404883" as="targetPoint" />
          </mxGeometry>
        </mxCell>
        <mxCell id="O8UG0uur4NidOeMpr3gH-1016" value="            Data Studio" style="strokeColor=#dddddd;shadow=1;strokeWidth=1;rounded=1;absoluteArcSize=1;arcSize=2;fontColor=#999999;" parent="14" vertex="1">
          <mxGeometry x="689.9968845315904" y="263.7637932660567" width="135.88235294117646" height="62.47288503253797" as="geometry" />
        </mxCell>
        <mxCell id="O8UG0uur4NidOeMpr3gH-1050" value="" style="group" parent="14" vertex="1" connectable="0">
          <mxGeometry x="689.9968845315904" y="263.7637932660568" width="135.88235294117646" height="62.47288503253797" as="geometry" />
        </mxCell>
        <mxCell id="O8UG0uur4NidOeMpr3gH-1051" value="" style="group" parent="O8UG0uur4NidOeMpr3gH-1050" vertex="1" connectable="0">
          <mxGeometry width="135.88235294117646" height="62.47288503253797" as="geometry" />
        </mxCell>
        <mxCell id="O8UG0uur4NidOeMpr3gH-1049" value="" style="shape=image;verticalLabelPosition=bottom;labelBackgroundColor=default;verticalAlign=top;aspect=fixed;imageAspect=0;image=data:image/svg+xml,PHN2ZyB4bWxucz0iaHR0cDovL3d3dy53My5vcmcvMjAwMC9zdmciIHhtbG5zOnhsaW5rPSJodHRwOi8vd3d3LnczLm9yZy8xOTk5L3hsaW5rIiB2ZXJzaW9uPSIxLjEiIHg9IjBweCIgeT0iMHB4IiB3aWR0aD0iMTkycHgiIGhlaWdodD0iMTkycHgiIHZpZXdCb3g9IjAgMCAxOTIgMTkyIiBlbmFibGUtYmFja2dyb3VuZD0ibmV3IDAgMCAxOTIgMTkyIiB4bWw6c3BhY2U9InByZXNlcnZlIj4mI3hhOzxyZWN0IHg9IjAiIHk9IjAiIHRyYW5zZm9ybT0ibWF0cml4KC0xLjgzNjk3MGUtMTYgMSAtMSAtMS44MzY5NzBlLTE2IDE5MiAtMi4xMzE2MjhlLTEzKSIgZmlsbD0ibm9uZSIgd2lkdGg9IjE5MiIgaGVpZ2h0PSIxOTIiLz4mI3hhOzxnPiYjeGE7CTxnPiYjeGE7CQk8cGF0aCBmaWxsPSIjNjY5REY2IiBkPSJNMTU5LDEzMUg5OGMtMTQuNzcsMC0yMywxMC4xOS0yMywyMWMwLDEwLDcsMjEsMjMsMjFoNjFWMTMxeiIvPiYjeGE7CQk8Y2lyY2xlIGZpbGw9IiMxQTczRTgiIGN4PSIxNTkiIGN5PSIxNTIiIHI9IjIxIi8+JiN4YTsJPC9nPiYjeGE7CTxnPiYjeGE7CQk8cGF0aCBmaWxsPSIjNjY5REY2IiBkPSJNOTYsNzVIMzVjLTE0Ljc3LDAtMjMsMTAuMTktMjMsMjFjMCwxMCw3LDIxLDIzLDIxaDYxVjc1eiIvPiYjeGE7CQk8Y2lyY2xlIGZpbGw9IiMxQTczRTgiIGN4PSI5NiIgY3k9Ijk2IiByPSIyMSIvPiYjeGE7CTwvZz4mI3hhOwk8Zz4mI3hhOwkJPHBhdGggZmlsbD0iIzY2OURGNiIgZD0iTTE1OSwxOWwtNjEsMGMtMTQuNzcsMC0yMywxMC4xOS0yMywyMWMwLDEwLDcsMjEsMjMsMjFoNjFWMTl6Ii8+JiN4YTsJCTxjaXJjbGUgZmlsbD0iIzFBNzNFOCIgY3g9IjE1OSIgY3k9IjQwIiByPSIyMSIvPiYjeGE7CTwvZz4mI3hhOzwvZz4mI3hhOzwvc3ZnPg==;" parent="O8UG0uur4NidOeMpr3gH-1051" vertex="1">
          <mxGeometry x="10" y="15.120000000000001" width="32.24" height="32.24" as="geometry" />
        </mxCell>
        <mxCell id="O8UG0uur4NidOeMpr3gH-1057" value="" style="shape=mxgraph.gcp2.doubleRect;strokeColor=#dddddd;shadow=1;strokeWidth=1;fontColor=#999999;" parent="14" vertex="1">
          <mxGeometry x="332.78" y="100" width="267.22" height="70" as="geometry" />
        </mxCell>
        <mxCell id="O8UG0uur4NidOeMpr3gH-1058" value="&lt;span style=&quot;color: rgb(0 , 0 , 0)&quot;&gt;Apache Airflow-PySpark/dbt Cloud&lt;/span&gt;&lt;br&gt;Kubernetes Engine" style="sketch=0;dashed=0;connectable=0;html=1;fillColor=#5184F3;strokeColor=none;shape=mxgraph.gcp2.hexIcon;prIcon=container_engine;part=1;labelPosition=right;verticalLabelPosition=middle;align=left;verticalAlign=middle;spacingLeft=5;fontColor=#999999;fontSize=12;" parent="O8UG0uur4NidOeMpr3gH-1057" vertex="1">
          <mxGeometry y="0.5" width="44" height="39" relative="1" as="geometry">
            <mxPoint x="5" y="-19.5" as="offset" />
          </mxGeometry>
        </mxCell>
        <mxCell id="818" value="Architecture: Pegaxy Data Warehouse&amp;nbsp;" style="fillColor=#4DA1F5;strokeColor=none;shadow=1;gradientColor=none;fontSize=14;align=left;spacingLeft=50;fontColor=#ffffff;html=1;" parent="1" vertex="1">
          <mxGeometry x="280" y="40" width="840" height="40" as="geometry" />
        </mxCell>
        <mxCell id="O8UG0uur4NidOeMpr3gH-1004" value="" style="group" parent="1" vertex="1" connectable="0">
          <mxGeometry x="100" y="195" width="120" height="375" as="geometry" />
        </mxCell>
        <mxCell id="997" value="Multiple Data&lt;br&gt;Sources" style="rounded=1;absoluteArcSize=1;arcSize=2;html=1;strokeColor=none;gradientColor=none;shadow=0;dashed=0;fontSize=12;fontColor=#9E9E9E;align=left;verticalAlign=top;spacing=10;spacingTop=-4;fillColor=#F1F8E9;container=1;" parent="O8UG0uur4NidOeMpr3gH-1004" vertex="1">
          <mxGeometry width="99.63999999999999" height="375" as="geometry">
            <mxRectangle width="120" height="50" as="alternateBounds" />
          </mxGeometry>
        </mxCell>
        <mxCell id="yerumhpv-u5GOACx2p9y-998" value="Data on chain" style="text;html=1;align=center;verticalAlign=middle;resizable=0;points=[];autosize=1;strokeColor=none;fillColor=none;fontColor=#999999;" vertex="1" parent="997">
          <mxGeometry x="4.819999999999986" y="345" width="90" height="20" as="geometry" />
        </mxCell>
        <mxCell id="O8UG0uur4NidOeMpr3gH-1001" value="" style="shape=image;verticalLabelPosition=bottom;labelBackgroundColor=default;verticalAlign=top;aspect=fixed;imageAspect=0;image=https://upload.wikimedia.org/wikipedia/commons/thumb/2/29/Postgresql_elephant.svg/1985px-Postgresql_elephant.svg.png;" parent="O8UG0uur4NidOeMpr3gH-1004" vertex="1">
          <mxGeometry x="20.36" y="55.00214285714284" width="49.28" height="50.84" as="geometry" />
        </mxCell>
        <mxCell id="O8UG0uur4NidOeMpr3gH-1003" value="" style="shape=image;verticalLabelPosition=bottom;labelBackgroundColor=default;verticalAlign=top;aspect=fixed;imageAspect=0;image=https://svn.apache.org/repos/asf/kafka/site/logos/originals/png/TALL%20-%20Black%20on%20Transparent.png;" parent="O8UG0uur4NidOeMpr3gH-1004" vertex="1">
          <mxGeometry x="7.3100000000000005" y="146.85242511520735" width="74.66967741935484" height="81.29032258064515" as="geometry" />
        </mxCell>
        <mxCell id="pY2Fy2ujE1M2zQMafOCl-1053" value="" style="shape=image;verticalLabelPosition=bottom;labelBackgroundColor=default;verticalAlign=top;aspect=fixed;imageAspect=0;image=https://assets.trustwalletapp.com/blockchains/polygon/info/logo.png;" parent="O8UG0uur4NidOeMpr3gH-1004" vertex="1">
          <mxGeometry x="9.82" y="255" width="80" height="80" as="geometry" />
        </mxCell>
        <mxCell id="O8UG0uur4NidOeMpr3gH-1043" value="" style="edgeStyle=orthogonalEdgeStyle;fontSize=12;html=1;endArrow=blockThin;endFill=1;rounded=0;strokeWidth=2;endSize=4;startSize=4;dashed=0;strokeColor=#4284F3;exitX=1;exitY=0.5;exitDx=0;exitDy=0;entryX=0.008;entryY=0.457;entryDx=0;entryDy=0;entryPerimeter=0;" parent="1" source="997" target="O8UG0uur4NidOeMpr3gH-1026" edge="1">
          <mxGeometry width="100" relative="1" as="geometry">
            <mxPoint x="510" y="300" as="sourcePoint" />
            <mxPoint x="610" y="300" as="targetPoint" />
            <Array as="points" />
          </mxGeometry>
        </mxCell>
        <mxCell id="O8UG0uur4NidOeMpr3gH-1053" value="" style="edgeStyle=orthogonalEdgeStyle;fontSize=12;html=1;endArrow=blockThin;endFill=1;rounded=0;strokeWidth=2;endSize=4;startSize=4;dashed=0;strokeColor=#4284F3;fontColor=#999999;exitX=1;exitY=0.5;exitDx=0;exitDy=0;" parent="1" source="O8UG0uur4NidOeMpr3gH-1018" edge="1">
          <mxGeometry width="100" relative="1" as="geometry">
            <mxPoint x="730" y="270" as="sourcePoint" />
            <mxPoint x="970" y="385" as="targetPoint" />
          </mxGeometry>
        </mxCell>
        <mxCell id="O8UG0uur4NidOeMpr3gH-1054" value="" style="edgeStyle=orthogonalEdgeStyle;fontSize=12;html=1;endArrow=blockThin;endFill=1;rounded=0;strokeWidth=2;endSize=4;startSize=4;dashed=0;strokeColor=#4284F3;fontColor=#999999;exitX=0.996;exitY=0.421;exitDx=0;exitDy=0;exitPerimeter=0;" parent="1" source="O8UG0uur4NidOeMpr3gH-1022" edge="1">
          <mxGeometry width="100" relative="1" as="geometry">
            <mxPoint x="730" y="270" as="sourcePoint" />
            <mxPoint x="1040" y="420" as="targetPoint" />
          </mxGeometry>
        </mxCell>
        <mxCell id="pY2Fy2ujE1M2zQMafOCl-997" value="" style="group" parent="1" vertex="1" connectable="0">
          <mxGeometry x="-140" y="330" width="159.3" height="150" as="geometry" />
        </mxCell>
        <mxCell id="pY2Fy2ujE1M2zQMafOCl-1060" value="" style="group" parent="pY2Fy2ujE1M2zQMafOCl-997" vertex="1" connectable="0">
          <mxGeometry x="-2" width="161.3" height="150" as="geometry" />
        </mxCell>
        <mxCell id="pY2Fy2ujE1M2zQMafOCl-998" value="" style="rounded=1;absoluteArcSize=1;arcSize=2;html=1;strokeColor=none;gradientColor=none;shadow=0;dashed=0;fontSize=12;fontColor=#9E9E9E;align=left;verticalAlign=top;spacing=10;spacingTop=-4;fillColor=#D4E1F5;" parent="pY2Fy2ujE1M2zQMafOCl-1060" vertex="1">
          <mxGeometry x="2" width="108" height="140" as="geometry" />
        </mxCell>
        <mxCell id="pY2Fy2ujE1M2zQMafOCl-1056" value="Front-end/Mobile" style="text;html=1;align=center;verticalAlign=middle;resizable=0;points=[];autosize=1;strokeColor=none;fillColor=none;fontColor=#999999;" parent="pY2Fy2ujE1M2zQMafOCl-1060" vertex="1">
          <mxGeometry y="110" width="110" height="20" as="geometry" />
        </mxCell>
        <mxCell id="pY2Fy2ujE1M2zQMafOCl-1055" value="" style="shape=image;verticalLabelPosition=bottom;labelBackgroundColor=default;verticalAlign=top;aspect=fixed;imageAspect=0;image=https://library.kissclipart.com/20180918/pke/kissclipart-computer-cellphone-icon-clipart-handheld-devices-c-630b49fa6435b914.png;" parent="pY2Fy2ujE1M2zQMafOCl-1060" vertex="1">
          <mxGeometry x="25.599999999999994" y="30" width="58.8" height="58.8" as="geometry" />
        </mxCell>
        <mxCell id="yerumhpv-u5GOACx2p9y-997" value="" style="edgeStyle=orthogonalEdgeStyle;fontSize=12;html=1;endArrow=blockThin;endFill=1;rounded=0;strokeWidth=2;endSize=4;startSize=4;dashed=0;strokeColor=#4284F3;" edge="1" parent="1">
          <mxGeometry width="100" relative="1" as="geometry">
            <mxPoint x="-30" y="400" as="sourcePoint" />
            <mxPoint x="110" y="400" as="targetPoint" />
            <Array as="points">
              <mxPoint x="107" y="400" />
            </Array>
          </mxGeometry>
        </mxCell>
      </root>
    </mxGraphModel>
  </diagram>
  <diagram id="bKDxX59sjiMlrKlOqMk6" name="Page-2">
    <mxGraphModel dx="1365" dy="770" grid="1" gridSize="10" guides="1" tooltips="1" connect="1" arrows="1" fold="1" page="1" pageScale="1" pageWidth="850" pageHeight="1100" math="0" shadow="0">
      <root>
        <mxCell id="43efEeUz_SYBhbmBFgqT-0" />
        <mxCell id="43efEeUz_SYBhbmBFgqT-1" parent="43efEeUz_SYBhbmBFgqT-0" />
      </root>
    </mxGraphModel>
  </diagram>
</mxfile>
